<svg width="64" height="64" viewBox="0 0 64 64" fill="none" xmlns="http://www.w3.org/2000/svg">
<rect width="64" height="64" fill="black"/>
<path d="M10.8125 35.5742V33.4297C10.0703 33.9375 9.55469 34.2734 9.26562 34.4375C8.59375 34.8047 8.00391 34.9883 7.49609 34.9883C6.88672 34.9883 6.36328 34.7656 5.92578 34.3203C5.48047 33.8594 5.25781 33.332 5.25781 32.7383C5.29688 32.1133 5.42969 31.4805 5.65625 30.8398C6.125 29.4805 6.90234 28.4844 7.98828 27.8516C8.52734 27.5312 9.14844 27.3711 9.85156 27.3711C9.86719 27.3711 9.88281 27.3711 9.89844 27.3711L10.2148 27.3594C10.5742 27.3594 10.7383 27.5 10.707 27.7812C10.082 27.8125 9.49609 27.957 8.94922 28.2148C8.40234 28.4727 7.92578 28.8203 7.51953 29.2578C7.12109 29.6875 6.80469 30.1914 6.57031 30.7695C6.34375 31.3477 6.23047 31.9375 6.23047 32.5391C6.23047 33.1406 6.38672 33.5742 6.69922 33.8398C7.01172 34.1055 7.41406 34.2383 7.90625 34.2383C8.32812 34.2383 8.91406 34.0547 9.66406 33.6875C10.1406 33.4531 10.4961 33.1875 10.7305 32.8906C10.8477 32.75 10.9062 32.6016 10.9062 32.4453V30.7109C10.6719 30.7109 10.125 30.8008 9.26562 30.9805C8.41406 31.1602 7.92188 31.2617 7.78906 31.2852C7.75 31.2617 7.70312 31.2383 7.64844 31.2148C7.59375 31.1836 7.5625 31.1406 7.55469 31.0859C7.53906 30.9688 7.71094 30.7891 8.07031 30.5469C8.15625 30.5 8.67188 30.4102 9.61719 30.2773C10.5625 30.1367 11.1641 30.0469 11.4219 30.0078C11.6797 29.9688 11.8945 29.9375 12.0664 29.9141C12.1445 29.9297 12.2422 29.9297 12.3594 29.9141C12.4766 29.8906 12.5859 29.8828 12.6875 29.8906C12.9375 29.8984 13.0547 30.0352 13.0391 30.3008L12.0664 30.6992C11.918 31.1758 11.8438 32.0742 11.8438 33.3945L11.8672 35.1406C11.8672 35.2969 11.8672 35.4414 11.8672 35.5742C11.6328 35.6914 11.4062 35.75 11.1875 35.75C10.9688 35.75 10.8438 35.6914 10.8125 35.5742ZM14.6914 28.0391C15.1211 27.625 15.8984 27.418 17.0234 27.418C17.7266 27.418 18.3164 27.4883 18.793 27.6289C19.2695 27.7695 19.625 27.918 19.8594 28.0742C20.1016 28.2305 20.2227 28.4023 20.2227 28.5898C20.2227 29.0195 19.7227 29.4453 18.7227 29.8672C18.5742 29.9375 18.1836 30.082 17.5508 30.3008C16.9258 30.5117 16.5039 30.6562 16.2852 30.7344C15.8086 30.9141 15.4922 31.0547 15.3359 31.1562C15.3359 31.1953 15.3516 31.2305 15.3828 31.2617C15.4141 31.2852 15.4883 31.332 15.6055 31.4023C15.7227 31.4648 15.8984 31.5586 16.1328 31.6836C16.3672 31.8008 16.6914 31.9727 17.1055 32.1992C18.3398 32.8711 19.6094 33.5898 20.9141 34.3555C20.9766 34.4023 21.0586 34.4688 21.1602 34.5547C21.2617 34.6328 21.3125 34.7227 21.3125 34.8242C21.3125 34.918 21.2812 34.9844 21.2188 35.0234C21.1562 35.0625 21.082 35.0898 20.9961 35.1055C20.9102 35.1289 20.8203 35.1406 20.7266 35.1406H20.4922C20.3359 35.1406 20.0078 34.9727 19.5078 34.6367C19.0156 34.3008 18.5859 34.0078 18.2188 33.7578C17.8594 33.5078 17.4922 33.2656 17.1172 33.0312C16.2344 32.4609 15.5352 32.0898 15.0195 31.918V34.6016C15.0195 34.7578 14.8867 34.8359 14.6211 34.8359H14.4922C14.3281 34.8359 14.207 34.7539 14.1289 34.5898C14.0195 34.3398 13.9648 33.8789 13.9648 33.207L14 30.8516C14 29.6953 13.9492 28.6797 13.8477 27.8047C14.0352 27.4844 14.2656 27.4961 14.5391 27.8398C14.6016 27.918 14.6523 27.9844 14.6914 28.0391ZM18.6523 28.1797L17.8906 28.168C16.125 28.168 15.1094 28.3711 14.8438 28.7773C14.7656 28.8867 14.7266 29.0273 14.7266 29.1992C14.7266 29.3633 14.7344 29.5078 14.75 29.6328C14.7891 29.9531 14.8789 30.1836 15.0195 30.3242C15.043 30.332 15.082 30.3359 15.1367 30.3359C15.1992 30.3359 15.3086 30.3203 15.4648 30.2891C15.6289 30.2578 15.8438 30.2031 16.1094 30.125C16.3828 30.0391 16.6719 29.9375 16.9766 29.8203C17.2812 29.7031 17.5742 29.582 17.8555 29.457C18.7383 29.0586 19.1797 28.7344 19.1797 28.4844C19.1797 28.3438 19.0039 28.2422 18.6523 28.1797ZM28.2969 30.7109H28.625C28.7578 30.7109 28.8828 30.7227 29 30.7461C29.125 30.7695 29.1875 30.8555 29.1875 31.0039C29.2422 31.3164 29.0586 31.4688 28.6367 31.4609C28.5195 31.4531 28.4102 31.4453 28.3086 31.4375C28.2148 31.4297 28.1367 31.4297 28.0742 31.4375C28.0117 31.4375 27.9844 31.457 27.9922 31.4961C28.0703 31.7227 28.1523 31.9766 28.2383 32.2578C28.332 32.5391 28.4336 32.8203 28.543 33.1016C28.8242 33.7969 29.0898 34.2969 29.3398 34.6016C29.207 34.7656 29.0508 34.9023 28.8711 35.0117C28.6992 35.1211 28.6055 35.1758 28.5898 35.1758C28.582 35.1758 28.5742 35.1719 28.5664 35.1641L26.9141 31.6836L23.7148 32.4688L23.5977 32.9609C23.3711 33.8594 23.1172 34.4844 22.8359 34.8359C22.7891 34.9141 22.6914 34.9219 22.543 34.8594C22.293 34.7656 22.168 34.6875 22.168 34.625C22.168 34.6094 22.25 34.3828 22.4141 33.9453C22.5781 33.5078 22.7422 33.0664 22.9062 32.6211C23.0781 32.168 23.2539 31.6953 23.4336 31.2031C23.6211 30.7109 23.7969 30.2422 23.9609 29.7969C24.125 29.3516 24.2734 28.9531 24.4062 28.6016C24.5391 28.2422 24.6328 27.9844 24.6875 27.8281C24.7422 27.6641 24.7773 27.5234 24.793 27.4062C24.8164 27.2812 24.8477 27.1758 24.8867 27.0898C24.9648 26.9102 25.1602 26.8203 25.4727 26.8203C25.8086 27.0078 26.0664 27.2539 26.2461 27.5586C26.4336 27.8555 26.5898 28.1758 26.7148 28.5195C26.8477 28.8633 26.9766 29.2109 27.1016 29.5625C27.2266 29.9141 27.3945 30.2344 27.6055 30.5234C27.6758 30.6328 27.7812 30.6914 27.9219 30.6992C28.0625 30.707 28.1875 30.7109 28.2969 30.7109ZM25.3672 28.1797C25.3047 28.6562 25.1641 29.1445 24.9453 29.6445C24.7266 30.1445 24.5508 30.5352 24.418 30.8164C24.2852 31.0898 24.1719 31.3438 24.0781 31.5781C24.6094 31.5781 25.2617 31.4219 26.0352 31.1094C26.2305 31.0234 26.418 30.9453 26.5977 30.875C26.2305 29.3047 25.8203 28.4062 25.3672 28.1797ZM30.6523 33.0547C30.2148 32.9922 29.9961 32.8906 29.9961 32.75C29.9961 32.6484 30.0703 32.5312 30.2188 32.3984C30.3672 32.2656 30.5156 32.1289 30.6641 31.9883C30.6641 31.5195 30.5938 30.9961 30.4531 30.418C30.3125 29.832 30.2109 29.3789 30.1484 29.0586C30.0859 28.7383 30.0547 28.4453 30.0547 28.1797C30.0547 27.9141 30.0938 27.7461 30.1719 27.6758C30.2578 27.6055 30.3789 27.5703 30.5352 27.5703C30.6914 27.5703 30.793 27.5938 30.8398 27.6406C30.8867 27.6797 30.918 27.7305 30.9336 27.793C30.9492 27.8555 30.957 27.9219 30.957 27.9922C30.9648 28.0625 30.9805 28.1289 31.0039 28.1914C31.043 28.3398 31.1641 28.4141 31.3672 28.4141C31.8906 28.4062 32.4141 28.3633 32.9375 28.2852C33.4609 28.1992 33.9805 28.1133 34.4961 28.0273C35.5273 27.8555 36.25 27.7695 36.6641 27.7695C37.0859 27.7695 37.418 27.7812 37.6602 27.8047C37.668 27.9531 37.6836 28.082 37.707 28.1914C37.7305 28.3008 37.7422 28.3906 37.7422 28.4609C37.7422 28.5938 37.6133 28.6406 37.3555 28.6016C33.2695 28.75 31.2266 29.0547 31.2266 29.5156C31.2266 30.0234 31.2617 30.4609 31.332 30.8281C31.4023 31.1875 31.4531 31.4141 31.4844 31.5078C31.5234 31.6016 31.5664 31.6484 31.6133 31.6484C32.0586 31.6484 32.5078 31.6094 32.9609 31.5312C33.4219 31.4531 33.8789 31.3711 34.332 31.2852C34.793 31.1914 35.2539 31.1055 35.7148 31.0273C36.1758 30.9492 36.6289 30.9102 37.0742 30.9102C37.082 30.9102 37.0859 30.9414 37.0859 31.0039C37.0859 31.0586 37.082 31.1211 37.0742 31.1914C37.0508 31.3789 37.0508 31.4727 37.0742 31.4727C36.7383 31.6602 36.1289 31.8125 35.2461 31.9297C34.8633 31.9844 34.4727 32.0352 34.0742 32.082C33.6758 32.1289 33.3086 32.1797 32.9727 32.2344C32.1992 32.3438 31.75 32.4883 31.625 32.668L31.4961 34.9648C31.4102 35.0508 31.3125 35.0938 31.2031 35.0938L30.7695 35.0586C30.7305 35.0586 30.6914 35.0586 30.6523 35.0586V33.0547ZM38.9609 33.0547C38.5234 32.9922 38.3047 32.8906 38.3047 32.75C38.3047 32.6484 38.3789 32.5312 38.5273 32.3984C38.6758 32.2656 38.8242 32.1289 38.9727 31.9883C38.9727 31.5195 38.9023 30.9961 38.7617 30.418C38.6211 29.832 38.5195 29.3789 38.457 29.0586C38.3945 28.7383 38.3633 28.4453 38.3633 28.1797C38.3633 27.9141 38.4023 27.7461 38.4805 27.6758C38.5664 27.6055 38.6875 27.5703 38.8438 27.5703C39 27.5703 39.1016 27.5938 39.1484 27.6406C39.1953 27.6797 39.2266 27.7305 39.2422 27.793C39.2578 27.8555 39.2656 27.9219 39.2656 27.9922C39.2734 28.0625 39.2891 28.1289 39.3125 28.1914C39.3516 28.3398 39.4727 28.4141 39.6758 28.4141C40.1992 28.4062 40.7227 28.3633 41.2461 28.2852C41.7695 28.1992 42.2891 28.1133 42.8047 28.0273C43.8359 27.8555 44.5586 27.7695 44.9727 27.7695C45.3945 27.7695 45.7266 27.7812 45.9688 27.8047C45.9766 27.9531 45.9922 28.082 46.0156 28.1914C46.0391 28.3008 46.0508 28.3906 46.0508 28.4609C46.0508 28.5938 45.9219 28.6406 45.6641 28.6016C41.5781 28.75 39.5352 29.0547 39.5352 29.5156C39.5352 30.0234 39.5703 30.4609 39.6406 30.8281C39.7109 31.1875 39.7617 31.4141 39.793 31.5078C39.832 31.6016 39.875 31.6484 39.9219 31.6484C40.3672 31.6484 40.8164 31.6094 41.2695 31.5312C41.7305 31.4531 42.1875 31.3711 42.6406 31.2852C43.1016 31.1914 43.5625 31.1055 44.0234 31.0273C44.4844 30.9492 44.9375 30.9102 45.3828 30.9102C45.3906 30.9102 45.3945 30.9414 45.3945 31.0039C45.3945 31.0586 45.3906 31.1211 45.3828 31.1914C45.3594 31.3789 45.3594 31.4727 45.3828 31.4727C45.0469 31.6602 44.4375 31.8125 43.5547 31.9297C43.1719 31.9844 42.7812 32.0352 42.3828 32.082C41.9844 32.1289 41.6172 32.1797 41.2812 32.2344C40.5078 32.3438 40.0586 32.4883 39.9336 32.668L39.8047 34.9648C39.7188 35.0508 39.6211 35.0938 39.5117 35.0938L39.0781 35.0586C39.0391 35.0586 39 35.0586 38.9609 35.0586V33.0547ZM47.3984 34.8125C47.3984 34.9453 47.3047 35.0117 47.1172 35.0117C46.9766 35.0117 46.8086 34.9453 46.6133 34.8125C46.5195 34.6016 46.4727 34.0977 46.4727 33.3008C46.4727 32.5039 46.4805 31.8477 46.4961 31.332C46.5117 30.8086 46.5273 30.3281 46.543 29.8906C46.5898 28.9375 46.6133 28.4336 46.6133 28.3789C46.8398 28.2461 47.0273 28.1797 47.1758 28.1797C47.3242 28.1797 47.3984 28.2461 47.3984 28.3789V34.8125ZM53.7266 29.2461L52.6836 29.2227C52.4102 29.2227 52.0938 29.25 51.7344 29.3047C51.7188 29.6094 51.6875 30.0039 51.6406 30.4883C51.4766 32.207 51.3945 33.3242 51.3945 33.8398C51.3945 34.3477 51.4023 34.707 51.418 34.918L50.3164 35L50.6797 29.2109L48.1836 29.0703C48.1211 29.0703 48.0703 29.0195 48.0312 28.918C48 28.8164 47.9844 28.7227 47.9844 28.6367C47.9844 28.5508 48.0195 28.457 48.0898 28.3555C48.1602 28.2539 48.2422 28.2031 48.3359 28.2031C48.9062 28.2266 49.4805 28.2656 50.0586 28.3203C51.1289 28.4141 52.0391 28.4609 52.7891 28.4609L53.5156 28.4375C54.0859 28.4219 54.6523 28.3594 55.2148 28.25C55.3398 28.2734 55.418 28.4688 55.4492 28.8359C55.457 28.9141 55.4609 28.9766 55.4609 29.0234C54.9453 29.1719 54.3672 29.2461 53.7266 29.2461ZM56.6914 34.8125C56.6914 34.9453 56.5977 35.0117 56.4102 35.0117C56.2695 35.0117 56.1016 34.9453 55.9062 34.8125C55.8125 34.6016 55.7656 34.0977 55.7656 33.3008C55.7656 32.5039 55.7734 31.8477 55.7891 31.332C55.8047 30.8086 55.8203 30.3281 55.8359 29.8906C55.8828 28.9375 55.9062 28.4336 55.9062 28.3789C56.1328 28.2461 56.3203 28.1797 56.4688 28.1797C56.6172 28.1797 56.6914 28.2461 56.6914 28.3789V34.8125Z" fill="white"/>
</svg>
